HIERARCHY
ROOT Hips
{
	OFFSET 0.000000 0.000000 0.000000
	CHANNELS 6 Xposition Yposition Zposition Xrotation Yrotation Zrotation
	JOINT LeftUpLeg_virtual
	{
		OFFSET 0.000000 0.000000 0.000000
		CHANNELS 3 Xrotation Yrotation Zrotation
		JOINT LeftUpLeg
		{
			OFFSET 15.427100 -6.655098 0.678600
			CHANNELS 3 Xrotation Yrotation Zrotation
			JOINT LeftLeg
			{
				OFFSET 4.081073 -39.591068 13.024000
				CHANNELS 3 Xrotation Yrotation Zrotation
				JOINT LeftFoot
				{
					OFFSET -4.081074 -37.707932 -15.979700
					CHANNELS 3 Xrotation Yrotation Zrotation
					JOINT LeftToeBase
					{
						OFFSET 5.346399 -15.068900 20.645000
						CHANNELS 3 Xrotation Yrotation Zrotation
						JOINT LeftToe_End
						{
							OFFSET 2.754700 0.931300 11.300900
							CHANNELS 3 Xrotation Yrotation Zrotation
							End Site
							{
								OFFSET 0 0 0
							}
						}
					}
				}
			}
		}
	}
	JOINT RightUpLeg_virtual
	{
		OFFSET 0.000000 0.000000 0.000000
		CHANNELS 3 Xrotation Yrotation Zrotation
		JOINT RightUpLeg
		{
			OFFSET -15.569500 -6.655098 0.678600
			CHANNELS 3 Xrotation Yrotation Zrotation
			JOINT RightLeg
			{
				OFFSET -4.081825 -39.591045 13.023800
				CHANNELS 3 Xrotation Yrotation Zrotation
				JOINT RightFoot
				{
					OFFSET 4.081824 -37.707954 -15.979600
					CHANNELS 3 Xrotation Yrotation Zrotation
					JOINT RightToeBase
					{
						OFFSET -5.346400 -15.068900 20.645000
						CHANNELS 3 Xrotation Yrotation Zrotation
						JOINT RightToe_End
						{
							OFFSET -2.754700 0.931300 11.300900
							CHANNELS 3 Xrotation Yrotation Zrotation
							End Site
							{
								OFFSET 0 0 0
							}
						}
					}
				}
			}
		}
	}
	JOINT Spine_virtual
	{
		OFFSET 0.000000 0.000000 0.000000
		CHANNELS 3 Xrotation Yrotation Zrotation
		JOINT Spine
		{
			OFFSET -0.279200 12.230698 -2.892100
			CHANNELS 3 Xrotation Yrotation Zrotation
			JOINT Spine1
			{
				OFFSET -0.232667 10.192268 -1.242267
				CHANNELS 3 Xrotation Yrotation Zrotation
				JOINT Spine1_split
				{
					OFFSET -0.232667 10.192268 -1.242267
					CHANNELS 3 Xrotation Yrotation Zrotation
					JOINT Spine2
					{
						OFFSET -0.232667 10.192268 -1.242267
						CHANNELS 3 Xrotation Yrotation Zrotation
						JOINT Neck_virtual
						{
							OFFSET 0.000000 0.000000 0.000000
							CHANNELS 3 Xrotation Yrotation Zrotation
							JOINT Neck
							{
								OFFSET -0.418800 17.814194 8.416900
								CHANNELS 3 Xrotation Yrotation Zrotation
								JOINT Head
								{
									OFFSET 0.000000 7.031097 3.806800
									CHANNELS 3 Xrotation Yrotation Zrotation
									JOINT HeadTop_End
									{
										OFFSET 0.000000 24.646606 12.978600
										CHANNELS 3 Xrotation Yrotation Zrotation
										End Site
										{
											OFFSET 0 0 0
										}
									}
								}
							}
						}
						JOINT LeftShoulder_virtual
						{
							OFFSET 0.000000 0.000000 0.000000
							CHANNELS 3 Xrotation Yrotation Zrotation
							JOINT LeftShoulder
							{
								OFFSET 8.476499 7.247704 -3.868750
								CHANNELS 3 Xrotation Yrotation Zrotation
								JOINT LeftShoulder_split
								{
									OFFSET 8.476499 7.247704 -3.868750
									CHANNELS 3 Xrotation Yrotation Zrotation
									JOINT LeftArm
									{
										OFFSET 9.308998 -2.777710 0.208600
										CHANNELS 3 Xrotation Yrotation Zrotation
										JOINT LeftForeArm
										{
											OFFSET 29.972298 0.000000 0.000000
											CHANNELS 3 Xrotation Yrotation Zrotation
											JOINT LeftHand
											{
												OFFSET 26.026505 0.000000 0.000000
												CHANNELS 3 Xrotation Yrotation Zrotation
												End Site
												{
													OFFSET 0 0 0
												}
											}
										}
									}
								}
							}
						}
						JOINT RightShoulder_virtual
						{
							OFFSET 0.000000 0.000000 0.000000
							CHANNELS 3 Xrotation Yrotation Zrotation
							JOINT RightShoulder
							{
								OFFSET -7.570500 7.247704 -3.868750
								CHANNELS 3 Xrotation Yrotation Zrotation
								JOINT RightShoulder_split
								{
									OFFSET -7.570500 7.247704 -3.868750
									CHANNELS 3 Xrotation Yrotation Zrotation
									JOINT RightArm
									{
										OFFSET -9.308998 -2.777710 0.208500
										CHANNELS 3 Xrotation Yrotation Zrotation
										JOINT RightForeArm
										{
											OFFSET -29.972300 0.000000 0.000000
											CHANNELS 3 Xrotation Yrotation Zrotation
											JOINT RightHand
											{
												OFFSET -26.026505 0.000000 0.000000
												CHANNELS 3 Xrotation Yrotation Zrotation
												End Site
												{
													OFFSET 0 0 0
												}
											}
										}
									}
								}
							}
						}
					}
				}
			}
		}
	}
}
MOTION
Frames: 10
Frame Time: 0.03333333
5.296344 77.437706 -6.260427 0.000000 0.000000 0.000000 -8.799681 8.983454 0.344880 -20.201131 -3.763867 15.217918 53.196406 -3.704524 0.254060 -20.553976 4.703922 -17.604553 -0.456251 -4.294414 1.494953 0.000000 0.000000 0.000000 -9.025369 7.738196 0.439055 -13.070163 -11.036461 -13.923767 50.938291 8.506933 -1.067359 -29.556035 -19.906694 16.969084 3.779342 7.047168 -18.460488 0.000000 0.000000 0.000000 -9.077801 12.422585 0.549222 13.682942 -1.266529 1.146784 6.447130 -3.551886 -0.476560 0.255355 -0.189444 0.163846 0.000000 0.000000 0.000000 8.396112 -1.908182 -0.311561 14.261611 11.433469 3.579575 -36.922141 -7.175967 5.578753 0.000000 0.000000 0.000000 7.011945 -3.144963 -0.463219 3.662765 -1.274253 -8.141988 9.397244 -6.269859 -6.414934 -22.673686 -17.455660 -43.593098 70.252273 -53.511011 62.544848 0.000000 0.000000 0.000000 7.145278 -3.551659 -0.805572 3.482799 -11.715132 18.537268 6.173869 -0.130533 7.503134 -25.772006 20.307032 66.252459 97.044810 85.540251 -101.681443 0.000000 0.000000 0.000000 
5.162756 77.455093 -6.116247 0.000000 0.000000 0.000000 -8.967552 8.774073 0.226729 -20.236703 -3.477189 15.303389 53.257017 -3.723313 0.361606 -20.895529 4.583960 -17.582965 -0.497720 -4.306220 1.617990 0.000000 0.000000 0.000000 -9.187809 7.750112 0.318410 -13.166820 -11.293145 -13.975877 51.013634 8.540307 -0.906611 -29.501537 -19.857662 16.857055 4.323843 6.991762 -18.483006 0.000000 0.000000 0.000000 -9.231819 12.363897 0.394624 14.006943 -1.294883 1.056708 6.515765 -3.404359 -0.175567 0.183988 -0.079774 0.139363 0.000000 0.000000 0.000000 8.247644 -1.785224 -0.190239 13.879175 11.246239 3.661797 -36.898089 -7.953095 5.947563 0.000000 0.000000 0.000000 7.201986 -3.019400 -0.379628 4.008441 -1.020762 -8.126437 9.405363 -4.714581 -7.217205 -23.766193 -18.163934 -46.904869 67.483225 -51.892591 59.935689 0.000000 0.000000 0.000000 7.291733 -3.358811 -0.658366 3.134244 -11.815566 17.749643 5.753651 -2.289118 8.176560 -25.007134 21.252899 65.420706 64.364534 85.561247 -68.993824 0.000000 0.000000 0.000000 
5.087673 77.550392 -5.919325 0.000000 0.000000 0.000000 -9.202683 8.676649 0.082499 -20.361035 -3.250346 15.284461 53.606326 -3.687839 0.665008 -21.125763 4.360406 -17.905974 -0.327207 -4.290326 1.736479 0.000000 0.000000 0.000000 -9.392766 7.840378 0.153256 -13.073333 -11.706264 -13.928780 50.909126 8.624843 -0.823866 -29.285754 -19.723964 16.966221 4.419677 6.996414 -18.416651 0.000000 0.000000 0.000000 -9.473784 12.276631 0.079136 14.468887 -1.359301 0.741328 6.683278 -3.103511 0.111662 0.130663 -0.113300 0.021616 0.000000 0.000000 0.000000 8.119991 -1.492718 -0.106723 13.140529 10.943836 3.758745 -36.545719 -9.763611 6.212869 0.000000 0.000000 0.000000 7.407420 -2.763529 -0.339729 4.075859 -0.876473 -7.798286 8.748036 -3.769930 -6.396537 -23.511688 -18.938455 -49.867133 62.528913 -51.098612 55.657791 0.000000 0.000000 0.000000 7.554189 -2.981770 -0.480245 2.762606 -11.440447 16.481653 3.726759 -2.968598 7.634052 -22.845733 22.060703 64.916440 37.280839 83.496932 -42.165295 0.000000 0.000000 0.000000 
5.092514 77.751961 -5.714739 0.000000 0.000000 0.000000 -9.466595 8.830365 0.016611 -20.409620 -3.131912 15.059143 53.883847 -3.495416 1.104571 -21.153499 4.142597 -18.342229 -0.173536 -4.255540 1.851258 0.000000 0.000000 0.000000 -9.542495 7.997064 0.037038 -12.641813 -12.213352 -13.746891 50.614717 8.680242 -0.844885 -29.164788 -19.555781 16.993210 4.181101 7.041183 -18.227316 0.000000 0.000000 0.000000 -9.785854 12.276711 -0.272131 14.942299 -1.518451 0.264705 6.865468 -2.710189 0.333060 0.131912 -0.274209 -0.034221 0.000000 0.000000 0.000000 8.036800 -1.097699 -0.059363 12.248442 10.529015 3.808839 -35.754562 -12.234551 6.197194 0.000000 0.000000 0.000000 7.527361 -2.405536 -0.309243 3.881046 -0.659425 -6.826891 7.985273 -3.620816 -4.387821 -21.867558 -20.066664 -51.181736 57.241941 -51.893790 51.320846 0.000000 0.000000 0.000000 7.830043 -2.517875 -0.323385 2.461265 -10.677713 14.758519 1.499398 -2.312699 6.451522 -18.806687 22.762939 63.914287 31.436233 82.069736 -36.406182 0.000000 0.000000 0.000000 
5.160398 78.131561 -5.516462 0.000000 0.000000 0.000000 -9.741390 9.194132 0.088310 -20.225751 -3.124296 14.555126 53.723205 -3.131566 1.605137 -20.869933 4.035498 -18.701529 -0.189921 -4.209161 1.945737 0.000000 0.000000 0.000000 -9.635843 8.233023 0.055010 -11.864664 -12.740088 -13.460388 50.050950 8.665799 -0.979398 -29.179067 -19.385199 16.779734 3.883709 7.087892 -17.924032 0.000000 0.000000 0.000000 -10.142148 12.384211 -0.538709 15.295445 -1.872570 -0.274210 6.959793 -2.291435 0.452956 0.118575 -0.523516 -0.020294 0.000000 0.000000 0.000000 8.076999 -0.675608 -0.033859 11.524370 10.041510 3.781153 -34.489009 -14.830856 5.752063 0.000000 0.000000 0.000000 7.525268 -2.003272 -0.257876 3.536667 -0.165677 -5.124097 7.244607 -3.270433 -2.891210 -18.418901 -21.793257 -49.890263 52.340556 -54.827568 47.580891 0.000000 0.000000 0.000000 8.051782 -2.072445 -0.189934 2.250661 -9.654149 12.635265 -0.231439 -1.156235 4.930971 -12.615115 23.566934 61.432217 33.848481 82.066321 -38.501630 0.000000 0.000000 0.000000 
5.254970 78.722122 -5.327562 0.000000 0.000000 0.000000 -9.966428 9.620265 0.344440 -19.693558 -3.196295 13.784949 52.898070 -2.624253 2.079062 -20.361583 4.078924 -18.758242 -0.295034 -4.165743 1.960600 0.000000 0.000000 0.000000 -9.689120 8.567134 0.250516 -10.932291 -13.224757 -13.164954 49.235504 8.627497 -1.169238 -29.105086 -19.210327 16.487822 3.610058 7.137856 -17.549672 0.000000 0.000000 0.000000 -10.439140 12.591504 -0.586804 15.364992 -2.472716 -0.758794 6.926529 -1.912144 0.498980 0.077169 -0.741088 0.012663 0.000000 0.000000 0.000000 8.194203 -0.270380 0.005478 11.145225 9.530837 3.683661 -32.806833 -17.307062 4.692767 0.000000 0.000000 0.000000 7.412812 -1.598015 -0.135046 3.189323 0.514243 -2.799572 6.865785 -3.213058 -2.171840 -12.834281 -23.744024 -45.218386 47.869654 -59.648711 44.284734 0.000000 0.000000 0.000000 8.102408 -1.715685 -0.091315 2.125836 -8.488482 10.260297 -1.238455 0.070608 3.320566 -4.773285 23.753525 56.388420 35.780260 82.330895 -39.753801 0.000000 0.000000 0.000000 
5.393979 79.486191 -5.159643 0.000000 0.000000 0.000000 -10.147084 9.936794 0.724910 -18.882814 -3.287308 12.942696 51.512228 -2.068543 2.448215 -19.661388 4.194300 -18.495498 -0.362150 -4.132135 1.875702 0.000000 0.000000 0.000000 -9.741994 8.910039 0.599771 -9.979561 -13.646230 -12.926994 48.110514 8.634815 -1.425089 -28.808310 -19.007197 16.396376 3.249808 7.235140 -17.200494 0.000000 0.000000 0.000000 -10.645625 12.913464 -0.415480 15.119327 -3.292508 -1.126637 6.824863 -1.606298 0.483853 0.067659 -0.758470 0.081598 0.000000 0.000000 0.000000 8.325447 0.056904 0.118369 11.230866 8.921387 3.580856 -31.003779 -19.606439 3.042841 0.000000 0.000000 0.000000 7.269028 -1.225652 0.016382 3.085111 1.159284 -0.074737 7.049129 -4.596888 -1.820332 -4.948504 -24.824761 -37.160570 43.547377 -65.182121 41.011980 0.000000 0.000000 0.000000 7.939119 -1.447154 0.031277 1.969818 -7.137980 7.881014 -1.242917 0.933017 1.921830 2.753936 22.559584 49.305507 27.795554 81.438722 -31.058345 0.000000 0.000000 0.000000 
5.570766 80.340065 -5.056490 0.000000 0.000000 0.000000 -10.265028 10.081621 1.100035 -18.092341 -3.405427 12.240781 49.945297 -1.697868 2.681337 -18.698485 4.232282 -18.241577 -0.494950 -4.105761 1.739554 0.000000 0.000000 0.000000 -9.792797 9.198471 0.957660 -9.136415 -13.980414 -12.756596 46.716527 8.729731 -1.756665 -28.295747 -18.779585 16.657716 2.776221 7.391691 -16.971196 0.000000 0.000000 0.000000 -10.674420 13.195421 -0.219909 14.637261 -4.194466 -1.306044 6.737489 -1.359874 0.449735 0.119236 -0.651448 0.114638 0.000000 0.000000 0.000000 8.346711 0.299330 0.319215 11.705711 8.204877 3.539911 -29.408513 -21.771341 0.910445 0.000000 0.000000 0.000000 7.169409 -0.939212 0.111852 3.333176 1.663747 2.636290 7.000058 -6.663723 -1.453921 3.237592 -23.778426 -27.503258 38.251805 -69.499210 36.426823 0.000000 0.000000 0.000000 7.617926 -1.218861 0.176271 1.703871 -5.827095 5.725929 -0.635684 1.761281 1.100888 6.729422 19.840006 41.616780 13.689187 78.535216 -16.620716 0.000000 0.000000 0.000000 
5.787842 81.085854 -5.080606 0.000000 0.000000 0.000000 -10.298456 10.081504 1.346314 -17.598069 -3.596086 11.810711 48.658595 -1.618956 2.760549 -17.591376 4.113052 -18.154119 -0.825884 -4.088454 1.598883 0.000000 0.000000 0.000000 -9.851723 9.419698 1.183461 -8.509065 -14.193406 -12.619265 45.428633 8.884316 -2.110144 -27.734229 -18.596331 17.152261 2.423506 7.577677 -16.878693 0.000000 0.000000 0.000000 -10.500127 13.306008 -0.169936 14.061548 -4.939813 -1.284350 6.807777 -1.165499 0.436447 0.184335 -0.431868 0.117385 0.000000 0.000000 0.000000 8.307066 0.481851 0.588915 12.403763 7.344163 3.625061 -28.310287 -23.761890 -1.507666 0.000000 0.000000 0.000000 7.210710 -0.708915 0.130269 3.861128 1.869485 5.110423 6.977563 -8.648613 -0.849059 7.688265 -20.668806 -18.983495 32.642632 -71.908204 31.137876 0.000000 0.000000 0.000000 7.239937 -1.011386 0.301641 1.248478 -4.894241 4.171859 0.507688 2.061813 0.164102 4.215930 16.441327 34.990154 1.619698 75.653668 -4.732206 0.000000 0.000000 0.000000 
5.972032 81.527809 -5.292753 0.000000 0.000000 0.000000 -10.301209 9.965126 1.365827 -17.487764 -3.851082 11.675446 47.966779 -1.724434 2.744490 -16.711943 3.881325 -18.109220 -1.365388 -4.075989 1.483738 0.000000 0.000000 0.000000 -9.935379 9.525207 1.203176 -8.274087 -14.217381 -12.482912 44.671032 9.037694 -2.412783 -27.307445 -18.552459 17.678283 2.423994 7.732125 -16.913200 0.000000 0.000000 0.000000 -10.174743 13.269923 -0.337189 13.613739 -5.324408 -1.114800 7.147107 -0.976312 0.444591 0.214668 -0.231835 0.122961 0.000000 0.000000 0.000000 8.408242 0.641263 0.846864 13.246271 6.348692 3.890865 -27.755210 -25.406753 -3.886341 0.000000 0.000000 0.000000 7.483977 -0.490665 0.081606 4.504950 1.750585 7.321308 6.763184 -9.665523 -0.449999 5.316445 -16.949200 -13.365643 28.784685 -72.926094 27.419115 0.000000 0.000000 0.000000 7.024984 -0.806039 0.365878 0.626358 -4.484868 3.480414 1.729374 2.198644 -0.549676 -6.489542 13.569551 30.935921 -11.014472 76.049485 7.489113 0.000000 0.000000 0.000000 
